<svg width="1500" height="900" viewBox="0 0 1500 900" xmlns="http://www.w3.org/2000/svg">
  <defs>
    <style>
      .title { font: 700 32px 'Noto Sans SC', 'Microsoft YaHei', sans-serif; fill: #111111; }
      .axis-label { font: 700 22px 'Noto Sans SC', 'Microsoft YaHei', sans-serif; fill: #111111; }
      .tick { font: 18px 'Noto Sans SC', 'Microsoft YaHei', sans-serif; fill: #111111; }
      .note { font: 18px 'Noto Sans SC', 'Microsoft YaHei', sans-serif; fill: #111111; }
      .grid { stroke: #BDBDBD; stroke-width: 1.2; stroke-dasharray: 6 6; }
      .axis { stroke: #111111; stroke-width: 2.4; fill: none; }
      .frame { stroke: #111111; stroke-width: 2; fill: #FFFFFF; }
      .curve { stroke: #111111; stroke-width: 3.2; fill: none; stroke-linejoin: round; stroke-linecap: round; }
      .point { fill: #FFFFFF; stroke: #111111; stroke-width: 1.8; }
    </style>
  </defs>

  <rect x="1" y="1" width="1498" height="898" class="frame"/>

  <text x="750" y="64" text-anchor="middle" class="title">PyFlowFusion 24小时源码行覆盖率增长曲线</text>

  <rect x="160" y="140" width="1220" height="530" class="frame"/>

  <line x1="160" y1="644.8" x2="1380" y2="644.8" class="grid"/>
  <line x1="160" y1="543.8" x2="1380" y2="543.8" class="grid"/>
  <line x1="160" y1="442.9" x2="1380" y2="442.9" class="grid"/>
  <line x1="160" y1="341.9" x2="1380" y2="341.9" class="grid"/>
  <line x1="160" y1="241.0" x2="1380" y2="241.0" class="grid"/>
  <line x1="160" y1="140.0" x2="1380" y2="140.0" class="grid"/>

  <line x1="160.0" y1="140" x2="160.0" y2="670" class="grid"/>
  <line x1="363.3" y1="140" x2="363.3" y2="670" class="grid"/>
  <line x1="566.7" y1="140" x2="566.7" y2="670" class="grid"/>
  <line x1="770.0" y1="140" x2="770.0" y2="670" class="grid"/>
  <line x1="973.3" y1="140" x2="973.3" y2="670" class="grid"/>
  <line x1="1176.7" y1="140" x2="1176.7" y2="670" class="grid"/>
  <line x1="1380.0" y1="140" x2="1380.0" y2="670" class="grid"/>

  <line x1="160" y1="670" x2="1380" y2="670" class="axis"/>
  <line x1="160" y1="670" x2="160" y2="140" class="axis"/>

  <line x1="160.0" y1="670" x2="160.0" y2="680" class="axis"/>
  <line x1="363.3" y1="670" x2="363.3" y2="680" class="axis"/>
  <line x1="566.7" y1="670" x2="566.7" y2="680" class="axis"/>
  <line x1="770.0" y1="670" x2="770.0" y2="680" class="axis"/>
  <line x1="973.3" y1="670" x2="973.3" y2="680" class="axis"/>
  <line x1="1176.7" y1="670" x2="1176.7" y2="680" class="axis"/>
  <line x1="1380.0" y1="670" x2="1380.0" y2="680" class="axis"/>

  <line x1="150" y1="644.8" x2="160" y2="644.8" class="axis"/>
  <line x1="150" y1="543.8" x2="160" y2="543.8" class="axis"/>
  <line x1="150" y1="442.9" x2="160" y2="442.9" class="axis"/>
  <line x1="150" y1="341.9" x2="160" y2="341.9" class="axis"/>
  <line x1="150" y1="241.0" x2="160" y2="241.0" class="axis"/>
  <line x1="150" y1="140.0" x2="160" y2="140.0" class="axis"/>

  <text x="160.0" y="710" text-anchor="middle" class="tick">0</text>
  <text x="363.3" y="710" text-anchor="middle" class="tick">240</text>
  <text x="566.7" y="710" text-anchor="middle" class="tick">480</text>
  <text x="770.0" y="710" text-anchor="middle" class="tick">720</text>
  <text x="973.3" y="710" text-anchor="middle" class="tick">960</text>
  <text x="1176.7" y="710" text-anchor="middle" class="tick">1200</text>
  <text x="1380.0" y="710" text-anchor="middle" class="tick">1440</text>

  <text x="138" y="651" text-anchor="end" class="tick">52</text>
  <text x="138" y="550" text-anchor="end" class="tick">54</text>
  <text x="138" y="449" text-anchor="end" class="tick">56</text>
  <text x="138" y="348" text-anchor="end" class="tick">58</text>
  <text x="138" y="247" text-anchor="end" class="tick">60</text>
  <text x="138" y="146" text-anchor="end" class="tick">62</text>

  <text x="770" y="778" text-anchor="middle" class="axis-label">运行时间 / min</text>
  <text x="62" y="405" text-anchor="middle" class="axis-label" transform="rotate(-90 62 405)">源码行覆盖率 / %</text>

  <polyline class="curve" points="185.4,657.0 210.8,464.3 237.1,373.8 262.5,330.9 287.9,298.8 313.3,266.3 338.8,233.6 365.0,219.8 390.4,211.0 415.9,204.0 441.3,191.6 466.7,183.9 492.1,179.0 518.4,175.3 543.8,172.3 569.2,171.1 594.6,168.0 620.0,165.2 645.5,164.5 671.7,163.3 697.1,162.8 722.6,162.4 748.0,160.5 774.2,159.6 799.7,157.2 825.1,157.0 851.3,155.9 876.8,155.9 902.2,155.8 927.6,155.8 953.0,155.2 979.3,155.2 1004.7,155.1 1030.1,155.1 1055.5,155.0 1081.8,153.8 1107.2,153.5 1132.6,153.5 1158.9,153.5 1184.3,153.3 1209.7,153.3 1236.0,153.2 1261.4,153.2 1286.8,153.2 1312.2,153.2 1337.6,153.1 1363.9,153.1"/>

  <g>
    <circle cx="185.4" cy="657.0" r="3.1" class="point"/>
    <circle cx="210.8" cy="464.3" r="3.1" class="point"/>
    <circle cx="237.1" cy="373.8" r="3.1" class="point"/>
    <circle cx="262.5" cy="330.9" r="3.1" class="point"/>
    <circle cx="287.9" cy="298.8" r="3.1" class="point"/>
    <circle cx="313.3" cy="266.3" r="3.1" class="point"/>
    <circle cx="338.8" cy="233.6" r="3.1" class="point"/>
    <circle cx="365.0" cy="219.8" r="3.1" class="point"/>
    <circle cx="390.4" cy="211.0" r="3.1" class="point"/>
    <circle cx="415.9" cy="204.0" r="3.1" class="point"/>
    <circle cx="441.3" cy="191.6" r="3.1" class="point"/>
    <circle cx="466.7" cy="183.9" r="3.1" class="point"/>
    <circle cx="492.1" cy="179.0" r="3.1" class="point"/>
    <circle cx="518.4" cy="175.3" r="3.1" class="point"/>
    <circle cx="543.8" cy="172.3" r="3.1" class="point"/>
    <circle cx="569.2" cy="171.1" r="3.1" class="point"/>
    <circle cx="594.6" cy="168.0" r="3.1" class="point"/>
    <circle cx="620.0" cy="165.2" r="3.1" class="point"/>
    <circle cx="645.5" cy="164.5" r="3.1" class="point"/>
    <circle cx="671.7" cy="163.3" r="3.1" class="point"/>
    <circle cx="697.1" cy="162.8" r="3.1" class="point"/>
    <circle cx="722.6" cy="162.4" r="3.1" class="point"/>
    <circle cx="748.0" cy="160.5" r="3.1" class="point"/>
    <circle cx="774.2" cy="159.6" r="3.1" class="point"/>
    <circle cx="799.7" cy="157.2" r="3.1" class="point"/>
    <circle cx="825.1" cy="157.0" r="3.1" class="point"/>
    <circle cx="851.3" cy="155.9" r="3.1" class="point"/>
    <circle cx="876.8" cy="155.9" r="3.1" class="point"/>
    <circle cx="902.2" cy="155.8" r="3.1" class="point"/>
    <circle cx="927.6" cy="155.8" r="3.1" class="point"/>
    <circle cx="953.0" cy="155.2" r="3.1" class="point"/>
    <circle cx="979.3" cy="155.2" r="3.1" class="point"/>
    <circle cx="1004.7" cy="155.1" r="3.1" class="point"/>
    <circle cx="1030.1" cy="155.1" r="3.1" class="point"/>
    <circle cx="1055.5" cy="155.0" r="3.1" class="point"/>
    <circle cx="1081.8" cy="153.8" r="3.1" class="point"/>
    <circle cx="1107.2" cy="153.5" r="3.1" class="point"/>
    <circle cx="1132.6" cy="153.5" r="3.1" class="point"/>
    <circle cx="1158.9" cy="153.5" r="3.1" class="point"/>
    <circle cx="1184.3" cy="153.3" r="3.1" class="point"/>
    <circle cx="1209.7" cy="153.3" r="3.1" class="point"/>
    <circle cx="1236.0" cy="153.2" r="3.1" class="point"/>
    <circle cx="1261.4" cy="153.2" r="3.1" class="point"/>
    <circle cx="1286.8" cy="153.2" r="3.1" class="point"/>
    <circle cx="1312.2" cy="153.2" r="3.1" class="point"/>
    <circle cx="1337.6" cy="153.1" r="3.1" class="point"/>
    <circle cx="1363.9" cy="153.1" r="3.1" class="point"/>
  </g>

  <line x1="185.4" y1="657.0" x2="232" y2="620" class="axis"/>
  <text x="240" y="614" class="note">起点：30 min，51.76%</text>

  <line x1="1363.9" y1="153.1" x2="1265" y2="108" class="axis"/>
  <text x="1258" y="100" text-anchor="end" class="note">终点：1421 min，61.74%</text>
</svg>
